<svg width="40" height="40" viewBox="0 0 40 40" fill="none" xmlns="http://www.w3.org/2000/svg">
<mask id="path-1-inside-1_298_265" fill="white">
<path fill-rule="evenodd" clip-rule="evenodd" d="M10 5.83333C10 5.61232 10.0878 5.40036 10.2441 5.24408C10.4004 5.0878 10.6123 5 10.8333 5H29.1667C29.3877 5 29.5996 5.0878 29.7559 5.24408C29.9122 5.40036 30 5.61232 30 5.83333V6.66667H34.1667C34.3877 6.66667 34.5996 6.75446 34.7559 6.91074C34.9122 7.06702 35 7.27899 35 7.5V12.5C35 13.6051 34.561 14.6649 33.7796 15.4463C32.9982 16.2277 31.9384 16.6667 30.8333 16.6667H29.4308C28.1467 20.3 24.8225 22.97 20.8333 23.2992V28.3333H26.6667C26.8877 28.3333 27.0996 28.4211 27.2559 28.5774C27.4122 28.7337 27.5 28.9457 27.5 29.1667V34.1667C27.5 34.3877 27.4122 34.5996 27.2559 34.7559C27.0996 34.9122 26.8877 35 26.6667 35H13.3333C13.1123 35 12.9004 34.9122 12.7441 34.7559C12.5878 34.5996 12.5 34.3877 12.5 34.1667V29.1667C12.5 28.9457 12.5878 28.7337 12.7441 28.5774C12.9004 28.4211 13.1123 28.3333 13.3333 28.3333H19.1667V23.2992C15.1783 22.97 11.8533 20.3 10.5692 16.6667H9.16667C8.0616 16.6667 7.00179 16.2277 6.22039 15.4463C5.43899 14.6649 5 13.6051 5 12.5V7.5C5 7.27899 5.0878 7.06702 5.24408 6.91074C5.40036 6.75446 5.61232 6.66667 5.83333 6.66667H10V5.83333ZM28.3333 13.3333V6.66667H11.6667V13.3333C11.6667 17.9358 15.3975 21.6667 20 21.6667C24.6025 21.6667 28.3333 17.9358 28.3333 13.3333ZM30 8.33333V15H30.8333C31.4964 15 32.1323 14.7366 32.6011 14.2678C33.0699 13.7989 33.3333 13.163 33.3333 12.5V8.33333H30ZM6.66667 8.33333H10V15H9.16667C8.50363 15 7.86774 14.7366 7.3989 14.2678C6.93006 13.7989 6.66667 13.163 6.66667 12.5V8.33333ZM14.1667 30V33.3333H25.8333V30H14.1667Z"/>
</mask>
<path fill-rule="evenodd" clip-rule="evenodd" d="M10 5.83333C10 5.61232 10.0878 5.40036 10.2441 5.24408C10.4004 5.0878 10.6123 5 10.8333 5H29.1667C29.3877 5 29.5996 5.0878 29.7559 5.24408C29.9122 5.40036 30 5.61232 30 5.83333V6.66667H34.1667C34.3877 6.66667 34.5996 6.75446 34.7559 6.91074C34.9122 7.06702 35 7.27899 35 7.5V12.5C35 13.6051 34.561 14.6649 33.7796 15.4463C32.9982 16.2277 31.9384 16.6667 30.8333 16.6667H29.4308C28.1467 20.3 24.8225 22.97 20.8333 23.2992V28.3333H26.6667C26.8877 28.3333 27.0996 28.4211 27.2559 28.5774C27.4122 28.7337 27.5 28.9457 27.5 29.1667V34.1667C27.5 34.3877 27.4122 34.5996 27.2559 34.7559C27.0996 34.9122 26.8877 35 26.6667 35H13.3333C13.1123 35 12.9004 34.9122 12.7441 34.7559C12.5878 34.5996 12.5 34.3877 12.5 34.1667V29.1667C12.5 28.9457 12.5878 28.7337 12.7441 28.5774C12.9004 28.4211 13.1123 28.3333 13.3333 28.3333H19.1667V23.2992C15.1783 22.97 11.8533 20.3 10.5692 16.6667H9.16667C8.0616 16.6667 7.00179 16.2277 6.22039 15.4463C5.43899 14.6649 5 13.6051 5 12.5V7.5C5 7.27899 5.0878 7.06702 5.24408 6.91074C5.40036 6.75446 5.61232 6.66667 5.83333 6.66667H10V5.83333ZM28.3333 13.3333V6.66667H11.6667V13.3333C11.6667 17.9358 15.3975 21.6667 20 21.6667C24.6025 21.6667 28.3333 17.9358 28.3333 13.3333ZM30 8.33333V15H30.8333C31.4964 15 32.1323 14.7366 32.6011 14.2678C33.0699 13.7989 33.3333 13.163 33.3333 12.5V8.33333H30ZM6.66667 8.33333H10V15H9.16667C8.50363 15 7.86774 14.7366 7.3989 14.2678C6.93006 13.7989 6.66667 13.163 6.66667 12.5V8.33333ZM14.1667 30V33.3333H25.8333V30H14.1667Z" fill="#E67826"/>
<path d="M10.8333 5V7V5ZM30 6.66667H28V8.66667H30V6.66667ZM34.1667 6.66667V8.66667V6.66667ZM29.4308 16.6667V14.6667H28.0165L27.5452 16.0002L29.4308 16.6667ZM20.8333 23.2992L20.6689 21.3059L18.8333 21.4574V23.2992H20.8333ZM20.8333 28.3333H18.8333V30.3333H20.8333V28.3333ZM19.1667 28.3333V30.3333H21.1667V28.3333H19.1667ZM19.1667 23.2992H21.1667V21.4574L19.3312 21.3059L19.1667 23.2992ZM10.5692 16.6667L12.4549 16.0002L11.9835 14.6667H10.5692V16.6667ZM5.83333 6.66667V8.66667V6.66667ZM10 6.66667V8.66667H12V6.66667H10ZM28.3333 6.66667H30.3333V4.66667H28.3333V6.66667ZM11.6667 6.66667V4.66667H9.66667V6.66667H11.6667ZM30 8.33333V6.33333H28V8.33333H30ZM30 15H28V17H30V15ZM30.8333 15V17V15ZM33.3333 8.33333H35.3333V6.33333H33.3333V8.33333ZM6.66667 8.33333V6.33333H4.66667V8.33333H6.66667ZM10 8.33333H12V6.33333H10V8.33333ZM10 15V17H12V15H10ZM9.16667 15V17V15ZM14.1667 30V28H12.1667V30H14.1667ZM14.1667 33.3333H12.1667V35.3333H14.1667V33.3333ZM25.8333 33.3333V35.3333H27.8333V33.3333H25.8333ZM25.8333 30H27.8333V28H25.8333V30ZM10 5.83333H12C12 6.14275 11.8771 6.4395 11.6583 6.65829L10.2441 5.24408L8.82986 3.82986C8.29851 4.36122 8 5.08188 8 5.83333H10ZM10.2441 5.24408L11.6583 6.65829C11.4395 6.87708 11.1428 7 10.8333 7V5V3C10.0819 3 9.36122 3.29851 8.82986 3.82986L10.2441 5.24408ZM10.8333 5V7H29.1667V5V3H10.8333V5ZM29.1667 5V7C28.8572 7 28.5605 6.87708 28.3417 6.65829L29.7559 5.24408L31.1701 3.82986C30.6388 3.29851 29.9181 3 29.1667 3V5ZM29.7559 5.24408L28.3417 6.65829C28.1229 6.4395 28 6.14275 28 5.83333H30H32C32 5.08189 31.7015 4.36122 31.1701 3.82986L29.7559 5.24408ZM30 5.83333H28V6.66667H30H32V5.83333H30ZM30 6.66667V8.66667H34.1667V6.66667V4.66667H30V6.66667ZM34.1667 6.66667V8.66667C33.8573 8.66667 33.5605 8.54375 33.3417 8.32496L34.7559 6.91074L36.1701 5.49653C35.6388 4.96518 34.9181 4.66667 34.1667 4.66667V6.66667ZM34.7559 6.91074L33.3417 8.32496C33.1229 8.10616 33 7.8094 33 7.5H35H37C37 6.74857 36.7015 6.02789 36.1701 5.49653L34.7559 6.91074ZM35 7.5H33V12.5H35H37V7.5H35ZM35 12.5H33C33 13.0746 32.7717 13.6257 32.3654 14.0321L33.7796 15.4463L35.1938 16.8605C36.3503 15.704 37 14.1355 37 12.5H35ZM33.7796 15.4463L32.3654 14.0321C31.9591 14.4384 31.408 14.6667 30.8333 14.6667V16.6667V18.6667C32.4688 18.6667 34.0374 18.017 35.1938 16.8605L33.7796 15.4463ZM30.8333 16.6667V14.6667H29.4308V16.6667V18.6667H30.8333V16.6667ZM29.4308 16.6667L27.5452 16.0002C26.5171 18.9088 23.8545 21.0431 20.6689 21.3059L20.8333 23.2992L20.9978 25.2924C25.7906 24.8969 29.7762 21.6912 31.3165 17.3331L29.4308 16.6667ZM20.8333 23.2992H18.8333V28.3333H20.8333H22.8333V23.2992H20.8333ZM20.8333 28.3333V30.3333H26.6667V28.3333V26.3333H20.8333V28.3333ZM26.6667 28.3333V30.3333C26.3573 30.3333 26.0605 30.2104 25.8417 29.9916L27.2559 28.5774L28.6701 27.1632C28.1388 26.6318 27.4181 26.3333 26.6667 26.3333V28.3333ZM27.2559 28.5774L25.8417 29.9916C25.6229 29.7728 25.5 29.4761 25.5 29.1667H27.5H29.5C29.5 28.4152 29.2015 27.6946 28.6701 27.1632L27.2559 28.5774ZM27.5 29.1667H25.5V34.1667H27.5H29.5V29.1667H27.5ZM27.5 34.1667H25.5C25.5 33.8573 25.6229 33.5605 25.8417 33.3417L27.2559 34.7559L28.6701 36.1701C29.2015 35.6388 29.5 34.9181 29.5 34.1667H27.5ZM27.2559 34.7559L25.8417 33.3417C26.0605 33.1229 26.3573 33 26.6667 33V35V37C27.4181 37 28.1388 36.7015 28.6701 36.1701L27.2559 34.7559ZM26.6667 35V33H13.3333V35V37H26.6667V35ZM13.3333 35V33C13.6427 33 13.9395 33.1229 14.1583 33.3417L12.7441 34.7559L11.3299 36.1701C11.8612 36.7015 12.5819 37 13.3333 37V35ZM12.7441 34.7559L14.1583 33.3417C14.3771 33.5605 14.5 33.8573 14.5 34.1667H12.5H10.5C10.5 34.9181 10.7985 35.6388 11.3299 36.1701L12.7441 34.7559ZM12.5 34.1667H14.5V29.1667H12.5H10.5V34.1667H12.5ZM12.5 29.1667H14.5C14.5 29.4761 14.3771 29.7728 14.1583 29.9916L12.7441 28.5774L11.3299 27.1632C10.7985 27.6946 10.5 28.4152 10.5 29.1667H12.5ZM12.7441 28.5774L14.1583 29.9916C13.9395 30.2104 13.6427 30.3333 13.3333 30.3333V28.3333V26.3333C12.5819 26.3333 11.8612 26.6318 11.3299 27.1632L12.7441 28.5774ZM13.3333 28.3333V30.3333H19.1667V28.3333V26.3333H13.3333V28.3333ZM19.1667 28.3333H21.1667V23.2992H19.1667H17.1667V28.3333H19.1667ZM19.1667 23.2992L19.3312 21.3059C16.1463 21.0431 13.4828 18.9086 12.4549 16.0002L10.5692 16.6667L8.68348 17.3331C10.2239 21.6914 14.2104 24.8969 19.0022 25.2924L19.1667 23.2992ZM10.5692 16.6667V14.6667H9.16667V16.6667V18.6667H10.5692V16.6667ZM9.16667 16.6667V14.6667C8.59203 14.6667 8.04093 14.4384 7.6346 14.0321L6.22039 15.4463L4.80617 16.8605C5.96265 18.017 7.53116 18.6667 9.16667 18.6667V16.6667ZM6.22039 15.4463L7.6346 14.0321C7.22827 13.6257 7 13.0746 7 12.5H5H3C3 14.1355 3.6497 15.704 4.80617 16.8605L6.22039 15.4463ZM5 12.5H7V7.5H5H3V12.5H5ZM5 7.5H7C7 7.80942 6.87708 8.10617 6.65829 8.32496L5.24408 6.91074L3.82986 5.49653C3.29851 6.02788 3 6.74855 3 7.5H5ZM5.24408 6.91074L6.65829 8.32496C6.4395 8.54375 6.14275 8.66667 5.83333 8.66667V6.66667V4.66667C5.08189 4.66667 4.36122 4.96518 3.82986 5.49653L5.24408 6.91074ZM5.83333 6.66667V8.66667H10V6.66667V4.66667H5.83333V6.66667ZM10 6.66667H12V5.83333H10H8V6.66667H10ZM28.3333 13.3333H30.3333V6.66667H28.3333H26.3333V13.3333H28.3333ZM28.3333 6.66667V4.66667H11.6667V6.66667V8.66667H28.3333V6.66667ZM11.6667 6.66667H9.66667V13.3333H11.6667H13.6667V6.66667H11.6667ZM11.6667 13.3333H9.66667C9.66667 19.0404 14.2929 23.6667 20 23.6667V21.6667V19.6667C16.5021 19.6667 13.6667 16.8313 13.6667 13.3333H11.6667ZM20 21.6667V23.6667C25.7071 23.6667 30.3333 19.0404 30.3333 13.3333H28.3333H26.3333C26.3333 16.8313 23.4979 19.6667 20 19.6667V21.6667ZM30 8.33333H28V15H30H32V8.33333H30ZM30 15V17H30.8333V15V13H30V15ZM30.8333 15V17C32.0268 17 33.1714 16.5259 34.0153 15.682L32.6011 14.2678L31.1869 12.8536C31.0931 12.9473 30.9659 13 30.8333 13V15ZM32.6011 14.2678L34.0153 15.682C34.8592 14.8381 35.3333 13.6935 35.3333 12.5H33.3333H31.3333C31.3333 12.6326 31.2807 12.7598 31.1869 12.8536L32.6011 14.2678ZM33.3333 12.5H35.3333V8.33333H33.3333H31.3333V12.5H33.3333ZM33.3333 8.33333V6.33333H30V8.33333V10.3333H33.3333V8.33333ZM6.66667 8.33333V10.3333H10V8.33333V6.33333H6.66667V8.33333ZM10 8.33333H8V15H10H12V8.33333H10ZM10 15V13H9.16667V15V17H10V15ZM9.16667 15V13C9.03406 13 8.90688 12.9473 8.81311 12.8536L7.3989 14.2678L5.98469 15.682C6.8286 16.5259 7.97319 17 9.16667 17V15ZM7.3989 14.2678L8.81311 12.8536C8.71935 12.7598 8.66667 12.6326 8.66667 12.5H6.66667H4.66667C4.66667 13.6935 5.14077 14.8381 5.98469 15.682L7.3989 14.2678ZM6.66667 12.5H8.66667V8.33333H6.66667H4.66667V12.5H6.66667ZM14.1667 30H12.1667V33.3333H14.1667H16.1667V30H14.1667ZM14.1667 33.3333V35.3333H25.8333V33.3333V31.3333H14.1667V33.3333ZM25.8333 33.3333H27.8333V30H25.8333H23.8333V33.3333H25.8333ZM25.8333 30V28H14.1667V30V32H25.8333V30Z" fill="#E67826" mask="url(#path-1-inside-1_298_265)"/>
</svg>
