<svg width="40" height="40" viewBox="0 0 40 40" fill="none" xmlns="http://www.w3.org/2000/svg">
<g clip-path="url(#clip0_337_1851)">
<path d="M20 0C31.046 0 40 8.954 40 20C40 31.046 31.046 40 20 40C8.954 40 0 31.046 0 20C0 8.954 8.954 0 20 0ZM20 2.79C15.4356 2.79 11.0582 4.60319 7.83069 7.83069C4.60319 11.0582 2.79 15.4356 2.79 20C2.79 24.5644 4.60319 28.9418 7.83069 32.1693C11.0582 35.3968 15.4356 37.21 20 37.21C24.5644 37.21 28.9418 35.3968 32.1693 32.1693C35.3968 28.9418 37.21 24.5644 37.21 20C37.21 15.4356 35.3968 11.0582 32.1693 7.83069C28.9418 4.60319 24.5644 2.79 20 2.79ZM24.096 6.976C25.3963 7.46759 26.6122 8.15853 27.7 9.024C27.9493 9.216 28.1913 9.42067 28.426 9.638C28.4687 9.67533 28.51 9.71533 28.55 9.758C29.206 10.364 29.802 11.046 30.33 11.778L30.55 12.072C30.6767 12.2613 30.7993 12.4547 30.918 12.652C31.014 12.8067 31.1067 12.964 31.196 13.124C31.2973 13.3027 31.3947 13.4847 31.488 13.67C31.592 13.8767 31.6913 14.0873 31.786 14.302C31.852 14.448 31.926 14.598 31.986 14.754C32.1313 15.1167 32.2627 15.4847 32.38 15.858L32.484 16.238C32.6846 16.9502 32.8283 17.6771 32.914 18.412C32.928 18.544 32.948 18.684 32.958 18.814C32.9993 19.2447 33.0213 19.678 33.024 20.114C33.0235 20.966 32.9451 21.8162 32.79 22.654L32.71 23.088C32.63 23.4667 32.5367 23.84 32.43 24.208C31.412 23.742 30.216 23.056 29.904 22.302C29.336 20.942 27.824 20.262 27.208 18.51C26.194 15.61 27.54 15.686 27.728 13.886C27.816 13.042 27.208 12.866 26.406 13.21C24.534 13.996 23.9 13.694 23.522 12.284C23.144 10.878 23.522 10.486 23.522 10.486C22.246 10.626 22.198 9.072 22.86 8.68C23.32 8.416 23.71 7.606 24.096 6.976ZM18.748 15.594C19.928 15.054 21.018 14.86 20.874 13.932C20.734 13.014 20.402 12.33 18.558 12.33C16.714 12.33 17.518 14.86 16.006 13.35C14.494 11.85 16.336 12.238 17.092 11.896C17.85 11.552 18.606 10.142 17.282 10.042C15.96 9.948 16.242 10.626 15.202 10.242C14.162 9.85 13.69 11.6 13.026 11.356C12.59 11.192 11.42 10.292 10.644 9.406C9.06053 10.7833 7.80696 12.4989 6.976 14.426C7.202 17.04 8.584 18.412 8.584 18.412C8.584 18.412 9.294 20.114 13.55 22.206C13.55 22.206 14.35 22.254 13.406 21.284C12.462 20.31 11.42 19.094 12.602 18.464C13.782 17.826 14.116 17.88 14.4 19.05C14.682 20.218 15.63 19.53 15.722 18.412C15.818 17.298 17.566 16.134 18.748 15.594ZM17.848 21.472C19.884 21.472 19.694 22.106 21.302 23.522C22.908 24.93 22.058 26.34 21.252 27.412C20.45 28.48 19.74 29.692 19.362 31.888C18.982 34.076 17.99 32.516 17.662 31.982C17.33 31.444 16.81 30.96 16.954 28.722C17.094 26.486 15.58 27.802 15.062 24.882C14.542 21.966 15.818 21.474 17.85 21.474M27.804 23.402C28.346 23.056 29.644 23.958 29.364 24.908C29.078 25.858 28.182 25.322 27.732 24.908C27.282 24.496 27.258 23.742 27.804 23.402Z" fill="#E67826"/>
</g>
<defs>
<clipPath id="clip0_337_1851">
<rect width="40" height="40" fill="white"/>
</clipPath>
</defs>
</svg>
