<svg width="101" height="100" viewBox="0 0 101 100" fill="none" xmlns="http://www.w3.org/2000/svg">
<path d="M87.8398 29.1665C88.9018 29.1677 89.9232 29.5743 90.6955 30.3034C91.4677 31.0324 91.9324 32.0288 91.9947 33.089C92.0569 34.1492 91.712 35.1931 91.0303 36.0075C90.3487 36.8219 89.3819 37.3452 88.3273 37.4707L87.8398 37.4998V79.1665C88.9018 79.1677 89.9232 79.5743 90.6955 80.3034C91.4677 81.0324 91.9324 82.0288 91.9947 83.089C92.0569 84.1492 91.712 85.1931 91.0303 86.0075C90.3487 86.8219 89.3819 87.3453 88.3273 87.4707L87.8398 87.4998H12.8398C11.7778 87.4987 10.7563 87.092 9.98408 86.363C9.21185 85.6339 8.74714 84.6375 8.6849 83.5774C8.62266 82.5172 8.9676 81.4733 9.64922 80.6589C10.3308 79.8445 11.2977 79.3211 12.3523 79.1957L12.8398 79.1665V37.4998C11.7778 37.4987 10.7563 37.092 9.98408 36.363C9.21185 35.6339 8.74714 34.6375 8.6849 33.5774C8.62266 32.5172 8.9676 31.4733 9.64922 30.6589C10.3308 29.8445 11.2977 29.3211 12.3523 29.1957L12.8398 29.1665H87.8398ZM79.5064 37.4998H21.1731V79.1665H29.5065V49.9998C29.5065 48.8948 29.9454 47.835 30.7268 47.0536C31.5082 46.2722 32.568 45.8332 33.6731 45.8332C34.7782 45.8332 35.838 46.2722 36.6194 47.0536C37.4008 47.835 37.8398 48.8948 37.8398 49.9998V79.1665H46.1731V49.9998C46.1731 48.8948 46.6121 47.835 47.3935 47.0536C48.1749 46.2722 49.2347 45.8332 50.3398 45.8332C51.4449 45.8332 52.5047 46.2722 53.2861 47.0536C54.0675 47.835 54.5064 48.8948 54.5064 49.9998V79.1665H62.8398V49.9998C62.8398 48.8948 63.2788 47.835 64.0602 47.0536C64.8416 46.2722 65.9014 45.8332 67.0064 45.8332C68.1115 45.8332 69.1713 46.2722 69.9527 47.0536C70.7341 47.835 71.1731 48.8948 71.1731 49.9998V79.1665H79.5064V37.4998ZM75.3398 16.6665C76.4449 16.6665 77.5047 17.1055 78.2861 17.8869C79.0675 18.6683 79.5064 19.7281 79.5064 20.8332C79.5064 21.9382 79.0675 22.998 78.2861 23.7794C77.5047 24.5609 76.4449 24.9998 75.3398 24.9998H25.3398C24.2347 24.9998 23.1749 24.5609 22.3935 23.7794C21.6121 22.998 21.1731 21.9382 21.1731 20.8332C21.1731 19.7281 21.6121 18.6683 22.3935 17.8869C23.1749 17.1055 24.2347 16.6665 25.3398 16.6665H75.3398Z" fill="#E67826"/>
</svg>
