<svg width="40" height="40" viewBox="0 0 40 40" fill="none" xmlns="http://www.w3.org/2000/svg">
<g clip-path="url(#clip0_298_263)">
<path d="M22.8125 18.4766C23.3073 18.6719 23.7891 18.8867 24.2578 19.1211C24.7266 19.3555 25.1823 19.6224 25.625 19.9219C25.3385 20.2344 25.0781 20.5599 24.8438 20.8984C24.6094 21.237 24.3945 21.6016 24.1992 21.9922C23.1966 21.3411 22.1289 20.8464 20.9961 20.5078C19.8633 20.1693 18.6979 20 17.5 20C16.3542 20 15.2474 20.1497 14.1797 20.4492C13.112 20.7487 12.1159 21.1654 11.1914 21.6992C10.2669 22.2331 9.42708 22.8841 8.67188 23.6523C7.91667 24.4206 7.26562 25.2669 6.71875 26.1914C6.17188 27.1159 5.7487 28.112 5.44922 29.1797C5.14974 30.2474 5 31.3542 5 32.5H2.5C2.5 30.9375 2.72786 29.4336 3.18359 27.9883C3.63932 26.543 4.29688 25.2083 5.15625 23.9844C6.01563 22.7604 7.03125 21.6732 8.20313 20.7227C9.375 19.7721 10.7031 19.0234 12.1875 18.4766C10.7161 17.513 9.57031 16.3021 8.75 14.8438C7.92969 13.3854 7.51302 11.7708 7.5 10C7.5 8.61979 7.76042 7.32422 8.28125 6.11328C8.80208 4.90234 9.51172 3.84115 10.4102 2.92969C11.3086 2.01823 12.3698 1.30208 13.5938 0.78125C14.8177 0.260417 16.1198 0 17.5 0C18.8802 0 20.1758 0.260417 21.3867 0.78125C22.5977 1.30208 23.6589 2.01172 24.5703 2.91016C25.4818 3.80859 26.1979 4.86979 26.7188 6.09375C27.2396 7.31771 27.5 8.61979 27.5 10C27.5 10.8594 27.3958 11.6992 27.1875 12.5195C26.9792 13.3398 26.6667 14.1146 26.25 14.8438C25.8333 15.5729 25.3451 16.2435 24.7852 16.8555C24.2253 17.4674 23.5677 18.0078 22.8125 18.4766ZM10 10C10 11.0417 10.1953 12.0117 10.5859 12.9102C10.9766 13.8086 11.5104 14.6029 12.1875 15.293C12.8646 15.9831 13.6589 16.5234 14.5703 16.9141C15.4818 17.3047 16.4583 17.5 17.5 17.5C18.5286 17.5 19.4987 17.3047 20.4102 16.9141C21.3216 16.5234 22.1159 15.9896 22.793 15.3125C23.4701 14.6354 24.0104 13.8411 24.4141 12.9297C24.8177 12.0182 25.013 11.0417 25 10C25 8.97135 24.8047 8.0013 24.4141 7.08984C24.0234 6.17839 23.4896 5.38411 22.8125 4.70703C22.1354 4.02995 21.3346 3.48958 20.4102 3.08594C19.4857 2.68229 18.5156 2.48698 17.5 2.5C16.4583 2.5 15.4883 2.69531 14.5898 3.08594C13.6914 3.47656 12.8971 4.01042 12.207 4.6875C11.5169 5.36458 10.9766 6.16536 10.5859 7.08984C10.1953 8.01432 10 8.98438 10 10ZM38.75 26.25C38.75 26.9271 38.6458 27.5846 38.4375 28.2227C38.2292 28.8607 37.9167 29.4531 37.5 30V40L32.5 37.5L27.5 40V30C27.0964 29.4531 26.7904 28.8607 26.582 28.2227C26.3737 27.5846 26.263 26.9271 26.25 26.25C26.25 25.3906 26.4128 24.5833 26.7383 23.8281C27.0638 23.0729 27.5065 22.4154 28.0664 21.8555C28.6263 21.2956 29.2904 20.8464 30.0586 20.5078C30.8268 20.1693 31.6406 20 32.5 20C33.3594 20 34.1667 20.1628 34.9219 20.4883C35.6771 20.8138 36.3346 21.263 36.8945 21.8359C37.4544 22.4089 37.9036 23.0729 38.2422 23.8281C38.5807 24.5833 38.75 25.3906 38.75 26.25ZM32.5 22.5C31.9792 22.5 31.4909 22.5977 31.0352 22.793C30.5794 22.9883 30.1823 23.2552 29.8438 23.5938C29.5052 23.9323 29.2383 24.3294 29.043 24.7852C28.8477 25.2409 28.75 25.7292 28.75 26.25C28.75 26.7708 28.8477 27.2591 29.043 27.7148C29.2383 28.1706 29.5052 28.5677 29.8438 28.9063C30.1823 29.2448 30.5794 29.5117 31.0352 29.707C31.4909 29.9023 31.9792 30 32.5 30C33.0208 30 33.5091 29.9023 33.9648 29.707C34.4206 29.5117 34.8177 29.2448 35.1562 28.9063C35.4948 28.5677 35.7617 28.1706 35.957 27.7148C36.1523 27.2591 36.25 26.7708 36.25 26.25C36.25 25.7292 36.1523 25.2409 35.957 24.7852C35.7617 24.3294 35.4948 23.9323 35.1562 23.5938C34.8177 23.2552 34.4206 22.9883 33.9648 22.793C33.5091 22.5977 33.0208 22.5 32.5 22.5ZM35 35.957V31.9727C34.2188 32.3242 33.3854 32.5 32.5 32.5C31.6146 32.5 30.7813 32.3242 30 31.9727V35.957C30.4167 35.7487 30.8333 35.5469 31.25 35.3516C31.6667 35.1562 32.0833 34.9414 32.5 34.707C32.9167 34.9284 33.3333 35.1367 33.75 35.332C34.1667 35.5273 34.5833 35.7357 35 35.957Z" fill="#E67826"/>
</g>
<defs>
<clipPath id="clip0_298_263">
<rect width="40" height="40" fill="white"/>
</clipPath>
</defs>
</svg>
